<svg height="651pt" viewBox="-55 -20 651 651.99813" width="651pt" xmlns="http://www.w3.org/2000/svg"><path d="m10.875 470.332031c18.074219 28.253907 53.300781 43.097657 100.921875 43.097657 11.617187-.042969 23.222656-.839844 34.734375-2.375 3.359375-.4375 6.746094-.945313 10.160156-1.5 1.375 3.167968 2.773438 6.300781 4.214844 9.371093 28.019531 59.535157 66.167969 92.324219 107.417969 92.324219 41.246093 0 79.394531-32.789062 107.414062-92.324219 1.441407-3.066406 2.847657-6.1875 4.214844-9.371093 3.410156.550781 6.800781 1.058593 10.15625 1.5 11.519531 1.535156 23.121094 2.332031 34.738281 2.375 47.617188 0 82.851563-14.84375 100.925782-43.097657 22.234374-34.75 15.164062-84.554687-19.886719-140.242187-5.144531-8.167969-10.792969-16.324219-16.957031-24.464844 6.144531-8.128906 11.800781-16.28125 16.957031-24.460938 35.050781-55.6875 42.117187-105.496093 19.886719-140.242187-22.230469-34.75-70.40625-49.210937-135.664063-40.722656-3.359375.433593-6.746094.941406-10.15625 1.5-1.378906-3.171875-2.777344-6.296875-4.21875-9.371094-28.015625-59.542969-66.164063-92.328125-107.410156-92.328125-41.25 0-79.398438 32.785156-107.417969 92.324219-1.441406 3.070312-2.839844 6.199219-4.214844 9.367187-3.40625-.550781-6.800781-1.058594-10.160156-1.496094-65.253906-8.484374-113.425781 5.984376-135.664062 40.726563-22.234376 34.742187-15.164063 84.550781 19.886718 140.238281 5.144532 8.171875 10.792969 16.328125 16.957032 24.464844-6.144532 8.125-11.792969 16.285156-16.953126 24.464844-35.054687 55.6875-42.117187 105.492187-19.882812 140.242187zm346.777344 40.082031c-24.535156 52.140626-56.257813 80.851563-89.328125 80.851563-33.074219 0-64.800781-28.710937-89.335938-80.851563-.730469-1.550781-1.453125-3.117187-2.160156-4.703124 29.457031-6.507813 60.363281-16.976563 91.488281-30.917969 31.132813 13.941406 62.039063 24.410156 91.496094 30.917969-.710938 1.578124-1.429688 3.144531-2.160156 4.703124zm-218.457032-204.789062c-.019531-22.917969 1.253907-45.820312 3.804688-68.597656 17.8125-14.425782 36.425781-27.839844 55.742188-40.175782 22.324218-14.320312 45.566406-27.160156 69.582031-38.429687 24.007812 11.269531 47.253906 24.109375 69.578125 38.429687 19.3125 12.335938 37.921875 25.75 55.730468 40.175782 2.558594 22.777344 3.832032 45.679687 3.816407 68.597656.015625 22.921875-1.253907 45.820312-3.808594 68.597656-17.808594 14.425782-36.414063 27.835938-55.734375 40.175782-22.324219 14.324218-45.570312 27.164062-69.582031 38.433593-24.015625-11.269531-47.257813-24.109375-69.582031-38.433593-19.316407-12.335938-37.925782-25.75-55.730469-40.175782-2.558594-22.777344-3.832031-45.675781-3.816407-68.597656zm-18.042968 49.917969c-17.21875-15.421875-33.261719-32.109375-48-49.917969 14.738281-17.808594 30.78125-34.492188 48-49.914062-1.285156 16.347656-1.945313 33.027343-1.945313 49.914062 0 16.890625.660157 33.570312 1.945313 49.917969zm25.808594-146.988281c4.605468-28.730469 12.011718-56.945313 22.117187-84.230469 25.730469 5.574219 50.910156 13.453125 75.222656 23.554687-19.316406 9.742188-38.121093 20.472656-56.335937 32.140625-14.230469 9.097657-27.898438 18.609375-41.003906 28.535157zm145.382812-60.675782c24.3125-10.101562 49.488281-17.980468 75.21875-23.554687 10.109375 27.285156 17.515625 55.5 22.117188 84.230469-13.082032-9.890626-26.742188-19.402344-40.996094-28.535157-18.222656-11.667969-37.023438-22.394531-56.339844-32.140625zm123.152344 107.828125c17.214844 15.425781 33.257812 32.109375 47.992187 49.917969-14.734375 17.808594-30.777343 34.496094-47.992187 49.917969 1.277344-16.347657 1.941406-33.027344 1.941406-49.917969 0-16.886719-.664062-33.566406-1.941406-49.917969zm-25.816406 146.992188c-4.601563 28.730469-12.007813 56.941406-22.117188 84.226562-25.730469-5.570312-50.90625-13.453125-75.21875-23.550781 19.316406-9.746094 38.121094-20.472656 56.339844-32.140625 14.226562-9.101563 27.890625-18.613281 40.996094-28.535156zm-201.714844 28.535156c18.214844 11.667969 37.019531 22.394531 56.339844 32.140625-24.316407 10.097656-49.488282 17.980469-75.226563 23.550781-10.105469-27.285156-17.511719-55.496093-22.113281-84.226562 13.078125 9.890625 26.746094 19.402343 41 28.535156zm301.003906-90.5c30.699219 48.769531 37.789062 90.964844 19.96875 118.824219-14.246094 22.253906-43.449219 33.914062-83.761719 33.914062-10.867187-.050781-21.714843-.792968-32.488281-2.234375-1.699219-.222656-3.410156-.464843-5.128906-.71875 11.644531-31.71875 20.082031-67.644531 24.960937-105.964843 22.972657-19.023438 44.234375-40.03125 63.527344-62.777344 4.625 6.3125 8.933594 12.628906 12.921875 18.957031zm-96.28125-220.71875c57.140625-7.429687 98.421875 3.820313 116.25 31.679687 17.820312 27.855469 10.730469 70.054688-19.96875 118.820313-3.980469 6.324219-8.285156 12.644531-12.921875 18.960937-19.292969-22.746093-40.554687-43.753906-63.527344-62.78125-4.878906-38.320312-13.316406-74.242187-24.960937-105.964843 1.71875-.25 3.429687-.496094 5.128906-.714844zm-213.699219-19.175781c24.535157-52.140625 56.265625-80.851563 89.335938-80.851563 33.070312 0 64.792969 28.710938 89.328125 80.851563.730468 1.550781 1.453125 3.117187 2.160156 4.703125-29.457031 6.503906-60.363281 16.976562-91.488281 30.914062-31.128907-13.9375-62.039063-24.410156-91.496094-30.914062.710937-1.582031 1.433594-3.148438 2.160156-4.703125zm-131.316406 169.675781c-30.6875-48.765625-37.785156-90.960937-19.964844-118.820313 14.246094-22.261718 43.445313-33.914062 83.761719-33.914062 10.863281.050781 21.714844.792969 32.484375 2.234375 1.703125.21875 3.417969.460937 5.132813.714844-11.648438 31.722656-20.078126 67.644531-24.957032 105.964843-22.980468 19.027344-44.238281 40.035157-63.535156 62.78125-4.621094-6.3125-8.929688-12.628906-12.921875-18.960937zm12.921875 51.261719c19.296875 22.746094 40.554688 43.753906 63.535156 62.777344 4.878906 38.320312 13.308594 74.246093 24.957032 105.964843-1.714844.253907-3.429688.492188-5.132813.71875-57.144531 7.429688-98.421875-3.824219-116.246094-31.679687-17.820312-27.855469-10.730469-70.054688 19.964844-118.824219 3.980469-6.324219 8.289063-12.640625 12.921875-18.957031zm0 0"/><path d="m268.371094 404.3125h.71875c10.394531-.039062 20.761718-1.023438 30.980468-2.945312 26.609376-5.109376 41.949219-16.191407 41.949219-30.226563v-130.847656c0-22.648438-38.324219-32.964844-73.703125-32.964844-35.375 0-73.703125 10.316406-73.703125 32.964844v130.847656c.007813 22.648437 38.425781 33.171875 73.757813 33.171875zm28-22.695312c-9.261719 1.714843-18.667969 2.554687-28.085938 2.5-33.550781 0-51.179687-9.34375-53.679687-13.230469v-20.050781c14.992187 6.402343 34.511719 9.449218 53.71875 9.449218s38.722656-3.046875 53.714843-9.449218v20.042968c-1.25 2.113282-8.730468 7.488282-25.667968 10.738282zm-81.765625-117.816407c14.992187 6.402344 34.511719 9.453125 53.71875 9.453125s38.722656-3.050781 53.714843-9.453125v19.730469c-2.5 3.875-20.113281 13.25-53.714843 13.25-33.609375 0-51.21875-9.375-53.71875-13.25zm53.808593-36.484375c32.804688 0 50.824219 8.949219 53.320313 12.976563-2.496094 4.03125-20.515625 12.972656-53.320313 12.972656-32.804687 0-50.824218-8.941406-53.324218-12.972656 2.5-4.027344 20.519531-12.976563 53.324218-12.976563zm-53.808593 80.003906c14.992187 6.402344 34.511719 9.445313 53.71875 9.445313s38.722656-3.042969 53.714843-9.445313v19.746094c-2.5 3.886719-20.167968 13.230469-53.714843 13.230469-33.550781 0-51.21875-9.34375-53.71875-13.230469zm0 0"/></svg>