<svg height="600pt" viewBox="-19 -61 600 600" width="600pt" xmlns="http://www.w3.org/2000/svg"><path d="m174.097656 474.84375h1.691406c25.832032-.007812 51.601563-2.378906 77.003907-7.082031 27.066406-5.191407 50-13.03125 66.371093-22.675781 4.386719-2.554688 8.546876-5.472657 12.429688-8.734376 10.984375 25.3125 63.039062 38.484376 114.507812 38.484376h1.164063c16.949219-.003907 33.863281-1.5625 50.523437-4.65625 41.226563-7.902344 64.710938-23.925782 64.710938-43.941407v-219.949219c0-31.914062-58.535156-48.609374-116.519531-48.609374-29.621094 0-57.304688 4.226562-78.515625 11.902343-6.542969 2.3125-12.820313 5.324219-18.714844 8.992188v-111.945313c0-45.117187-89.875-69.460937-174.375-69.460937s-174.375 24.335937-174.375 69.460937v338.761719c0 45.109375 89.644531 69.453125 174.097656 69.453125zm75.183594-26.730469c-24.792969 4.585938-49.964844 6.835938-75.183594 6.730469-42.769531 0-82.722656-5.972656-112.675781-16.8125-25.609375-9.269531-41.421875-21.777344-41.421875-32.648438v-79.785156c31.25 23.433594 94.160156 35.800782 154.375 35.800782s123.125-12.367188 154.375-35.800782v79.78125c0 13.261719-25.046875 32.296875-79.46875 42.734375zm282.585938-10.308593c-9.019532 5.3125-22.027344 9.71875-37.707032 12.730468-15.757812 2.929688-31.761718 4.371094-47.792968 4.308594-62.546876 0-96.371094-18.898438-96.371094-28.605469v-45.210937c21.25 13.3125 59.109375 20.15625 96.25 20.15625 37.132812 0 75-6.84375 96.25-20.15625v45.210937c.003906 3.261719-3.871094 7.589844-10.628906 11.566407zm10.632812-85.222657c0 9.707031-33.695312 28.601563-96.25 28.601563s-96.25-18.894532-96.25-28.601563v-44.703125c21.25 13.304688 59.117188 20.15625 96.25 20.15625s75-6.851562 96.25-20.15625zm-96.25-44.542969c-62.554688 0-96.25-18.894531-96.25-28.605468v-44.699219c21.25 13.304687 59.273438 20.15625 96.40625 20.15625 29.625 0 57.335938-4.226563 78.546875-11.902344 6.085937-2.214843 11.960937-4.980469 17.546875-8.269531v44.714844c0 9.710937-33.695312 28.605468-96.25 28.605468zm-.109375-130.359374c62.550781 0 96.675781 18.894531 96.675781 28.609374 0 9.707032-34.125 28.601563-96.675781 28.601563s-96.671875-18.894531-96.671875-28.601563c0-9.714843 34.121094-28.609374 96.671875-28.609374zm-384.929687-143.703126c29.964843-10.84375 70.015624-16.816406 112.769531-16.816406 42.753906 0 82.800781 5.972656 112.773437 16.816406 25.609375 9.273438 41.523438 21.777344 41.523438 32.644532 0 10.867187-15.910156 23.378906-41.523438 32.640625-29.972656 10.84375-70.019531 16.820312-112.773437 16.820312-42.753907 0-82.804688-5.976562-112.769531-16.820312-25.617188-9.269531-41.527344-21.777344-41.527344-32.640625 0-10.867188 15.910156-23.371094 41.527344-32.644532zm-41.210938 66.304688c31.25 23.433594 94.160156 35.800781 154.375 35.800781s123.125-12.367187 154.375-35.800781v79c0 10.875-16.140625 23.382812-41.75 32.644531-29.960938 10.839844-70.125 16.8125-112.898438 16.8125-42.773437 0-82.71875-5.972656-112.679687-16.8125-25.609375-9.261719-41.421875-21.769531-41.421875-32.644531zm0 112.65625c31.25 23.433594 94.160156 35.800781 154.375 35.800781s123.125-12.363281 154.375-35.800781v79c0 10.878906-16.140625 23.382812-41.75 32.652344-29.960938 10.839844-70.125 16.808594-112.898438 16.808594-42.773437 0-82.71875-5.96875-112.679687-16.808594-25.609375-9.269532-41.421875-21.777344-41.421875-32.648438zm0 0"/></svg>